<svg xmlns="http://www.w3.org/2000/svg" xmlns:xlink="http://www.w3.org/1999/xlink" width="1920" zoomAndPan="magnify" viewBox="0 0 1440 809.999993" height="1080" preserveAspectRatio="xMidYMid meet" version="1.0"><defs><clipPath id="8fd662fdce"><path d="M 1196 0 L 1440 0 L 1440 528 L 1196 528 Z M 1196 0 " clip-rule="nonzero"/></clipPath><clipPath id="6b9241a64c"><path d="M 1742.324219 -528.011719 L 2214.816406 -143.78125 L 1668.753906 527.714844 L 1196.265625 143.484375 Z M 1742.324219 -528.011719 " clip-rule="nonzero"/></clipPath><clipPath id="be2f6ddd4e"><path d="M 1742.324219 -528.011719 L 2214.816406 -143.78125 L 1668.753906 527.714844 L 1196.265625 143.484375 Z M 1742.324219 -528.011719 " clip-rule="nonzero"/></clipPath><clipPath id="089b99995b"><path d="M 0 273 L 303 273 L 303 810 L 0 810 Z M 0 273 " clip-rule="nonzero"/></clipPath><clipPath id="b7e723ed79"><path d="M -148.996094 273.328125 L 302.796875 681.695312 L -277.570312 1323.773438 L -729.363281 915.40625 Z M -148.996094 273.328125 " clip-rule="nonzero"/></clipPath><clipPath id="50d59ca0fa"><path d="M -148.996094 273.328125 L 302.796875 681.695312 L -277.570312 1323.773438 L -729.363281 915.40625 Z M -148.996094 273.328125 " clip-rule="nonzero"/></clipPath></defs><rect x="-144" width="1728" fill="#ffffff" y="-80.999999" height="971.999992" fill-opacity="1"/><rect x="-144" width="1728" fill="#2a2d30" y="-80.999999" height="971.999992" fill-opacity="1"/><g clip-path="url(#8fd662fdce)"><g clip-path="url(#6b9241a64c)"><g clip-path="url(#be2f6ddd4e)"><path fill="#0d0126" d="M 1668.503906 527.75 L 1196.425781 143.855469 L 1742.605469 -527.785156 L 2214.679688 -143.890625 Z M 1198.902344 143.601562 L 1668.246094 525.273438 L 2212.203125 -143.632812 L 1742.859375 -525.304688 Z M 1198.902344 143.601562 " fill-opacity="1" fill-rule="nonzero"/></g></g></g><g clip-path="url(#089b99995b)"><g clip-path="url(#b7e723ed79)"><g clip-path="url(#50d59ca0fa)"><path fill="#0d0126" d="M -277.824219 1323.796875 L -729.21875 915.785156 L -148.730469 273.570312 L 302.664062 681.578125 Z M -726.730469 915.660156 L -277.949219 1321.308594 L 300.179688 681.703125 L -148.605469 276.054688 Z M -726.730469 915.660156 " fill-opacity="1" fill-rule="nonzero"/></g></g></g></svg>