<svg xmlns="http://www.w3.org/2000/svg" xmlns:xlink="http://www.w3.org/1999/xlink" width="1080" zoomAndPan="magnify" viewBox="0 0 810 809.999993" height="1080" preserveAspectRatio="xMidYMid meet" version="1.0"><defs><clipPath id="e08bc0d42a"><path d="M 0 130.105469 L 810 130.105469 L 810 679.855469 L 0 679.855469 Z M 0 130.105469 " clip-rule="nonzero"/></clipPath></defs><g clip-path="url(#e08bc0d42a)"><path fill="#dbf227" d="M 0 584.105469 L 89.496094 679.574219 L 0 679.574219 Z M 451.179688 266 L 352.25 266 C 361.386719 280.222656 365.832031 296.289062 365.832031 313.726562 C 365.832031 339.128906 356.21875 360.398438 338.371094 378.246094 C 320.527344 396.09375 299.253906 405.015625 274.542969 405.015625 L 0 405.015625 L 0 584.085938 L 89.496094 679.558594 L 91.289062 679.558594 L 91.289062 496.980469 L 274.542969 496.980469 C 324.640625 496.980469 367.890625 479.132812 403.585938 443.441406 C 439.96875 407.75 457.125 363.824219 457.125 313.710938 C 457.125 297.066406 455.132812 281.160156 451.179688 266 Z M 0 130.472656 L 91.289062 222.453125 L 535.375 222.453125 L 535.375 679.574219 L 627.355469 679.574219 L 627.355469 222.453125 L 809.933594 222.453125 L 809.933594 130.472656 Z M 0 130.472656 " fill-opacity="1" fill-rule="nonzero"/></g></svg>